HIERARCHY
ROOT Hips
{
	OFFSET 0.000000 71.427986 0.000000
	CHANNELS 6 Xposition Yposition Zposition Xrotation Yrotation Zrotation
	JOINT Pelvis
	{
		OFFSET 0.000000 0.000000 0.000000
		CHANNELS 3 Xrotation Yrotation Zrotation
		JOINT LeftUpLeg
		{
			OFFSET 6.797100 -2.508499 -1.318700
			CHANNELS 3 Xrotation Yrotation Zrotation
			JOINT LeftLeg
			{
				OFFSET 0.069008 -29.241863 0.690200
				CHANNELS 3 Xrotation Yrotation Zrotation
				JOINT LeftFoot
				{
					OFFSET -0.069008 -29.568123 -0.266800
					CHANNELS 3 Xrotation Yrotation Zrotation
					JOINT LeftToeBase
					{
						OFFSET 3.145500 -8.631000 16.059900
						CHANNELS 3 Xrotation Yrotation Zrotation
						End Site
						{
							OFFSET 0.000000 18.501587 0.000000
						}
					}
				}
			}
			JOINT Left_ShortSleeve
			{
				OFFSET 0.265923 -10.480953 1.153800
				CHANNELS 3 Xrotation Yrotation Zrotation
				End Site
				{
					OFFSET 1.725763 19.823879 0.000000
				}
			}
		}
		JOINT RightUpLeg
		{
			OFFSET -6.797100 -2.508499 -1.318700
			CHANNELS 3 Xrotation Yrotation Zrotation
			JOINT RightLeg
			{
				OFFSET -0.082453 -29.241932 0.688000
				CHANNELS 3 Xrotation Yrotation Zrotation
				JOINT RightFoot
				{
					OFFSET 0.082453 -29.568058 -0.264600
					CHANNELS 3 Xrotation Yrotation Zrotation
					JOINT RightToeBase
					{
						OFFSET -3.115300 -8.682800 16.113400
						CHANNELS 3 Xrotation Yrotation Zrotation
						End Site
						{
							OFFSET 0.000000 18.567114 0.000000
						}
					}
				}
			}
			JOINT Right_ShortSleeve
			{
				OFFSET -0.265923 -10.480953 1.153800
				CHANNELS 3 Xrotation Yrotation Zrotation
				End Site
				{
					OFFSET -1.725766 19.823910 0.000000
				}
			}
		}
	}
	JOINT Spine
	{
		OFFSET 0.000000 13.368103 0.470500
		CHANNELS 3 Xrotation Yrotation Zrotation
		JOINT Spine1
		{
			OFFSET 0.147000 13.837402 0.538800
			CHANNELS 3 Xrotation Yrotation Zrotation
			JOINT Spine2
			{
				OFFSET 0.168000 16.242897 -1.435500
				CHANNELS 3 Xrotation Yrotation Zrotation
				JOINT Neck
				{
					OFFSET 0.217200 18.631500 -1.679100
					CHANNELS 3 Xrotation Yrotation Zrotation
					JOINT Head
					{
						OFFSET 0.000000 6.599396 1.385900
						CHANNELS 3 Xrotation Yrotation Zrotation
						JOINT Hat
						{
							OFFSET -0.532200 27.220596 -10.096100
							CHANNELS 3 Xrotation Yrotation Zrotation
							End Site
							{
								OFFSET 0.000000 22.029861 0.000000
							}
						}
						JOINT HairD
						{
							OFFSET -10.777400 17.437393 -1.325900
							CHANNELS 3 Xrotation Yrotation Zrotation
							JOINT HairD1
							{
								OFFSET -3.290299 -11.051193 1.062200
								CHANNELS 3 Xrotation Yrotation Zrotation
								End Site
								{
									OFFSET 0.000000 11.579437 0.000000
								}
							}
						}
						JOINT HairB
						{
							OFFSET -10.777400 17.437393 1.467900
							CHANNELS 3 Xrotation Yrotation Zrotation
							JOINT HairB1
							{
								OFFSET -1.561200 -12.956299 3.590200
								CHANNELS 3 Xrotation Yrotation Zrotation
								End Site
								{
									OFFSET 0.000000 13.534866 0.000000
								}
							}
						}
						JOINT HairA
						{
							OFFSET 9.713100 17.437393 1.467900
							CHANNELS 3 Xrotation Yrotation Zrotation
							JOINT HairA1
							{
								OFFSET 1.561200 -12.956299 3.590200
								CHANNELS 3 Xrotation Yrotation Zrotation
								End Site
								{
									OFFSET 0.000000 13.534866 0.000000
								}
							}
						}
						JOINT HairC
						{
							OFFSET 9.713100 17.437393 -1.325900
							CHANNELS 3 Xrotation Yrotation Zrotation
							JOINT HairC1
							{
								OFFSET 3.290300 -11.051193 1.062200
								CHANNELS 3 Xrotation Yrotation Zrotation
								End Site
								{
									OFFSET 0.000000 11.579437 0.000000
								}
							}
						}
					}
				}
				JOINT LeftShoulder
				{
					OFFSET 5.101800 15.108002 -2.763700
					CHANNELS 3 Xrotation Yrotation Zrotation
					JOINT LeftArm
					{
						OFFSET 9.825497 2.506317 -1.597400
						CHANNELS 3 Xrotation Yrotation Zrotation
						JOINT LeftForeArm
						{
							OFFSET 21.966244 0.000000 0.000000
							CHANNELS 3 Xrotation Yrotation Zrotation
							JOINT LeftHand
							{
								OFFSET 33.879036 0.000000 0.000000
								CHANNELS 3 Xrotation Yrotation Zrotation
								JOINT LeftHandThumb1
								{
									OFFSET 6.715286 -2.359680 3.363841
									CHANNELS 3 Xrotation Yrotation Zrotation
									JOINT LeftHandThumb2
									{
										OFFSET 2.507072 -1.447464 1.447461
										CHANNELS 3 Xrotation Yrotation Zrotation
										JOINT LeftHandThumb3
										{
											OFFSET 2.898338 -1.673355 1.673357
											CHANNELS 3 Xrotation Yrotation Zrotation
											End Site
											{
												OFFSET -0.295959 3.727692 -0.131651
											}
										}
									}
								}
								JOINT LeftHandIndex1
								{
									OFFSET 14.190811 -0.254547 3.840278
									CHANNELS 3 Xrotation Yrotation Zrotation
									JOINT LeftHandIndex2
									{
										OFFSET 3.551727 0.000000 -0.000000
										CHANNELS 3 Xrotation Yrotation Zrotation
										JOINT LeftHandIndex3
										{
											OFFSET 2.894196 0.000000 0.000000
											CHANNELS 3 Xrotation Yrotation Zrotation
											End Site
											{
												OFFSET -1.000603 2.690872 0.366626
											}
										}
									}
								}
								JOINT LeftHandMiddle1
								{
									OFFSET 13.776489 0.000000 0.000000
									CHANNELS 3 Xrotation Yrotation Zrotation
									JOINT LeftHandMiddle2
									{
										OFFSET 3.438232 0.000000 0.000000
										CHANNELS 3 Xrotation Yrotation Zrotation
										JOINT LeftHandMiddle3
										{
											OFFSET 3.691551 0.000000 0.000000
											CHANNELS 3 Xrotation Yrotation Zrotation
											End Site
											{
												OFFSET -1.082298 3.499527 0.457670
											}
										}
									}
								}
								JOINT LeftHandRing1
								{
									OFFSET 13.966164 -0.268127 -3.067488
									CHANNELS 3 Xrotation Yrotation Zrotation
									JOINT LeftHandRing2
									{
										OFFSET 3.162567 0.000000 0.000000
										CHANNELS 3 Xrotation Yrotation Zrotation
										JOINT LeftHandRing3
										{
											OFFSET 3.324348 0.000000 0.000000
											CHANNELS 3 Xrotation Yrotation Zrotation
											End Site
											{
												OFFSET -0.861900 3.184998 0.405154
											}
										}
									}
								}
								JOINT LeftHandPinky1
								{
									OFFSET 13.131393 -0.168503 -5.746925
									CHANNELS 3 Xrotation Yrotation Zrotation
									JOINT LeftHandPinky2
									{
										OFFSET 2.849182 0.000000 0.000000
										CHANNELS 3 Xrotation Yrotation Zrotation
										JOINT LeftHandPinky3
										{
											OFFSET 2.805038 0.000000 0.000000
											CHANNELS 3 Xrotation Yrotation Zrotation
											End Site
											{
												OFFSET -0.882500 2.642609 0.325652
											}
										}
									}
								}
							}
							JOINT Left_Sleeve
							{
								OFFSET 6.592125 -0.646545 0.805568
								CHANNELS 3 Xrotation Yrotation Zrotation
								End Site
								{
									OFFSET -0.000179 20.275787 -0.000000
								}
							}
						}
					}
				}
				JOINT RightShoulder
				{
					OFFSET -5.731700 15.108002 -2.763700
					CHANNELS 3 Xrotation Yrotation Zrotation
					JOINT RightArm
					{
						OFFSET -9.825497 2.506317 -1.597400
						CHANNELS 3 Xrotation Yrotation Zrotation
						JOINT RightForeArm
						{
							OFFSET -21.966242 0.000000 0.000000
							CHANNELS 3 Xrotation Yrotation Zrotation
							JOINT RightHand
							{
								OFFSET -33.879032 0.000000 0.000000
								CHANNELS 3 Xrotation Yrotation Zrotation
								JOINT RightHandThumb1
								{
									OFFSET -6.715286 -2.359680 3.363841
									CHANNELS 3 Xrotation Yrotation Zrotation
									JOINT RightHandThumb2
									{
										OFFSET -2.507072 -1.447464 1.447461
										CHANNELS 3 Xrotation Yrotation Zrotation
										JOINT RightHandThumb3
										{
											OFFSET -2.898338 -1.673355 1.673357
											CHANNELS 3 Xrotation Yrotation Zrotation
											End Site
											{
												OFFSET 0.295959 3.727692 -0.131651
											}
										}
									}
								}
								JOINT RightHandIndex1
								{
									OFFSET -14.190811 -0.254547 3.840278
									CHANNELS 3 Xrotation Yrotation Zrotation
									JOINT RightHandIndex2
									{
										OFFSET -3.551727 0.000000 -0.000000
										CHANNELS 3 Xrotation Yrotation Zrotation
										JOINT RightHandIndex3
										{
											OFFSET -2.894196 0.000000 0.000000
											CHANNELS 3 Xrotation Yrotation Zrotation
											End Site
											{
												OFFSET 1.000603 2.690872 0.366626
											}
										}
									}
								}
								JOINT RightHandMiddle1
								{
									OFFSET -13.776489 0.000000 0.000000
									CHANNELS 3 Xrotation Yrotation Zrotation
									JOINT RightHandMiddle2
									{
										OFFSET -3.438232 0.000000 0.000000
										CHANNELS 3 Xrotation Yrotation Zrotation
										JOINT RightHandMiddle3
										{
											OFFSET -3.691551 0.000000 0.000000
											CHANNELS 3 Xrotation Yrotation Zrotation
											End Site
											{
												OFFSET 1.082298 3.499527 0.457670
											}
										}
									}
								}
								JOINT RightHandRing1
								{
									OFFSET -13.966164 -0.268127 -3.067488
									CHANNELS 3 Xrotation Yrotation Zrotation
									JOINT RightHandRing2
									{
										OFFSET -3.162567 0.000000 0.000000
										CHANNELS 3 Xrotation Yrotation Zrotation
										JOINT RightHandRing3
										{
											OFFSET -3.324348 0.000000 0.000000
											CHANNELS 3 Xrotation Yrotation Zrotation
											End Site
											{
												OFFSET 0.861900 3.184998 0.405154
											}
										}
									}
								}
								JOINT RightHandPinky1
								{
									OFFSET -13.131393 -0.168503 -5.746925
									CHANNELS 3 Xrotation Yrotation Zrotation
									JOINT RightHandPinky2
									{
										OFFSET -2.849182 0.000000 0.000000
										CHANNELS 3 Xrotation Yrotation Zrotation
										JOINT RightHandPinky3
										{
											OFFSET -2.805038 0.000000 0.000000
											CHANNELS 3 Xrotation Yrotation Zrotation
											End Site
											{
												OFFSET 0.882500 2.642609 0.325652
											}
										}
									}
								}
							}
							JOINT Right_Sleeve
							{
								OFFSET -6.592125 -0.646545 0.805568
								CHANNELS 3 Xrotation Yrotation Zrotation
								End Site
								{
									OFFSET 0.000179 20.275787 -0.000000
								}
							}
						}
					}
				}
				JOINT Bind_Right_JacketString
				{
					OFFSET -3.534800 11.969597 7.200700
					CHANNELS 3 Xrotation Yrotation Zrotation
					JOINT Bind_Right_JacketString1
					{
						OFFSET -0.319900 -6.102600 2.794100
						CHANNELS 3 Xrotation Yrotation Zrotation
						End Site
						{
							OFFSET 0.000000 6.719452 0.000000
						}
					}
				}
				JOINT Bind_Left_JacketString
				{
					OFFSET 2.904800 11.969597 7.200700
					CHANNELS 3 Xrotation Yrotation Zrotation
					JOINT Bind_Left_JacketString1
					{
						OFFSET 0.364800 -5.904503 3.186800
						CHANNELS 3 Xrotation Yrotation Zrotation
						End Site
						{
							OFFSET 0.000000 6.719513 0.000000
						}
					}
				}
				JOINT HairE
				{
					OFFSET 5.915200 17.612701 -11.592200
					CHANNELS 3 Xrotation Yrotation Zrotation
					JOINT HairE1
					{
						OFFSET 0.289200 -7.171898 -1.284500
						CHANNELS 3 Xrotation Yrotation Zrotation
						End Site
						{
							OFFSET 0.000000 7.291756 0.000000
						}
					}
				}
				JOINT HairF
				{
					OFFSET -0.864800 17.612701 -11.592200
					CHANNELS 3 Xrotation Yrotation Zrotation
					JOINT HairF1
					{
						OFFSET 0.000000 -14.087097 -2.127501
						CHANNELS 3 Xrotation Yrotation Zrotation
						End Site
						{
							OFFSET 0.000000 14.246841 0.000000
						}
					}
				}
				JOINT HairG
				{
					OFFSET -8.087700 17.612701 -11.592200
					CHANNELS 3 Xrotation Yrotation Zrotation
					JOINT HairG1
					{
						OFFSET -0.293600 -6.081398 -0.910100
						CHANNELS 3 Xrotation Yrotation Zrotation
						End Site
						{
							OFFSET 0.000000 6.156120 0.000000
						}
					}
				}
			}
		}
	}
	JOINT Pouch
	{
		OFFSET 0.000000 4.394501 10.847300
		CHANNELS 3 Xrotation Yrotation Zrotation
		End Site
		{
			OFFSET 0.000000 21.880577 0.000000
		}
	}
	JOINT Bag
	{
		OFFSET -13.229000 4.813004 -0.593300
		CHANNELS 3 Xrotation Yrotation Zrotation
		End Site
		{
			OFFSET 0.000000 21.880577 0.000000
		}
	}
	JOINT OccupyGuyFacialAnim_Joint
	{
		OFFSET 1.000000 -70.206398 -1.655000
		CHANNELS 3 Xrotation Yrotation Zrotation
		End Site
		{
			OFFSET 0.000000 21.880577 0.000000
		}
	}
}
MOTION
Frames: 4
Frame Time: 0.033333
-0.141046 54.158470 -0.050222 5.383225 -0.188295 -1.787282 -0.000000 0.000000 0.000000 -68.997396 -2.876295 6.376685 55.766746 5.397146 2.246235 8.121559 -0.044075 -5.053952 0.000000 0.000000 -0.000000 0.000001 -0.000000 0.000001 -68.442717 -0.469322 -3.732476 55.170064 -10.145496 -0.222649 8.432659 -12.921613 1.825962 -0.000000 -0.000002 -0.000000 -0.000002 0.000000 -0.000001 8.708021 -0.035420 0.277072 3.139094 -0.034298 -0.109175 3.138958 -0.046024 -0.108871 4.732459 -0.305378 -1.317949 -17.606028 -1.799364 -2.032807 0.000001 -0.000000 0.000000 0.000001 -0.000000 0.000000 0.000001 -0.000000 0.000000 0.000001 -0.000000 0.000000 0.000001 0.000000 -0.000000 0.000001 -0.000000 0.000000 0.000001 0.000000 -0.000000 0.000001 -0.000000 0.000000 0.000001 -0.000000 0.000000 0.587803 -3.625148 -10.140389 -3.463561 -30.319165 -63.362832 0.000005 -62.841333 0.000013 53.323581 -2.650092 43.306886 -1.540047 3.690184 6.142355 4.987828 21.147830 1.693431 0.000001 -0.000001 0.000000 -0.018315 -0.748172 -1.325737 0.553079 2.708432 -23.078816 0.000000 0.000000 0.000002 -0.135842 11.389197 1.393651 0.104254 1.196044 -9.962553 -0.000000 -0.000000 -0.000001 -1.294557 10.572117 7.460400 0.260640 1.880127 -15.783821 0.000000 0.000001 -0.000003 -1.690020 13.282421 7.978296 0.124248 -2.719587 -11.642812 -0.000000 -0.000001 0.000001 0.000001 0.000003 0.000000 0.540184 4.733640 13.987126 -37.443681 30.282870 62.575816 0.000160 103.695618 -0.000159 -82.050099 17.164141 33.613034 -2.292602 -7.364870 -14.491978 5.259783 -15.532405 -0.703540 0.000002 0.000000 -0.000002 -0.387099 5.233569 4.396195 0.746297 -3.138814 26.742265 -0.000001 0.000000 -0.000001 -0.398804 2.588383 7.682163 1.061401 -3.697460 32.023731 0.000001 0.000000 0.000003 0.319176 -2.380015 10.277932 1.385218 -4.169600 36.741568 -0.000002 -0.000000 -0.000004 0.597857 -3.947578 10.027716 1.385231 -4.169622 36.741565 -0.000000 0.000002 -0.000004 -0.000002 0.000002 0.000001 0.000002 -0.000000 0.000000 0.000002 -0.000000 0.000000 0.000002 -0.000000 0.000000 0.000002 -0.000000 0.000000 0.000002 -0.000000 0.000000 0.000002 -0.000000 0.000000 0.000002 -0.000000 0.000000 0.000002 -0.000000 0.000000 0.000002 -0.000000 0.000000 0.000002 -0.000000 0.000000 -0.000000 0.000000 0.000000 -0.000000 0.000000 0.000000 -0.000000 0.000000 0.000000 
-0.145820 54.174202 -0.039208 5.316329 -0.266417 -1.826014 -0.000000 0.000000 0.000000 -68.902873 -2.915554 6.441124 55.774283 5.396018 2.279552 8.106072 -0.047571 -5.110068 0.000000 -0.000001 -0.000000 0.000002 0.000000 -0.000000 -68.338338 -0.516110 -3.673242 55.124742 -10.145326 -0.203061 8.427592 -12.863892 1.793178 -0.000000 0.000002 0.000000 -0.000002 0.000000 -0.000000 8.679051 -0.077746 0.309346 3.127288 -0.049724 -0.107533 3.127098 -0.061965 -0.107232 4.702444 -0.257586 -1.427994 -17.657791 -1.640859 -2.030544 0.000001 0.000000 0.000000 0.000001 0.000000 0.000000 0.000001 0.000000 0.000000 0.000001 0.000000 0.000000 0.000001 0.000000 0.000000 0.000001 0.000000 0.000000 0.000001 0.000000 0.000000 0.000001 0.000000 0.000000 0.000001 0.000000 0.000000 0.587903 -3.608724 -10.120344 -3.395584 -30.312028 -63.303102 -0.000012 -62.667307 -0.000012 53.170963 -2.661211 43.519974 -1.540041 3.690187 6.142357 4.987837 21.147828 1.693420 0.000003 -0.000000 0.000001 -0.018312 -0.748172 -1.325735 0.553081 2.708429 -23.078810 0.000001 -0.000000 -0.000000 -0.135836 11.389200 1.393654 0.104251 1.196045 -9.962555 -0.000001 0.000000 0.000001 -1.294550 10.572118 7.460400 0.260642 1.880126 -15.783816 -0.000002 0.000000 -0.000002 -1.690016 13.282422 7.978296 0.124247 -2.719589 -11.642809 -0.000000 0.000001 -0.000002 0.000000 -0.000001 0.000000 0.536955 4.776125 14.133126 -34.618394 29.513101 61.251299 0.000105 105.815080 -0.000091 -76.138974 15.374718 38.670759 -2.292602 -7.364869 -14.491974 5.259782 -15.532403 -0.703545 -0.000001 -0.000001 0.000000 -0.439808 1.727977 10.700181 1.380873 -4.163795 36.681756 -0.000000 -0.000002 -0.000005 -0.588674 1.109514 16.000449 1.854983 -4.732426 42.789100 -0.000000 -0.000003 0.000004 0.183746 -1.745967 20.329438 2.327543 -5.194778 48.246417 0.000000 -0.000001 -0.000001 0.040024 -1.348801 20.201756 2.327512 -5.194777 48.246400 -0.000004 -0.000001 0.000000 -0.000000 -0.000003 0.000001 0.000000 0.000000 0.000000 0.000000 0.000000 -0.000000 0.000000 0.000000 0.000000 0.000000 0.000000 0.000000 0.000000 0.000000 0.000000 0.000000 0.000000 -0.000000 0.000000 0.000000 0.000000 0.000000 0.000000 0.000000 0.000000 0.000000 0.000000 0.000000 0.000000 -0.000000 -0.000000 0.000000 0.000000 -0.000000 0.000000 0.000000 -0.000000 0.000000 0.000000 
-0.140960 54.181679 -0.037807 5.185667 -0.338683 -1.866084 -0.000000 0.000000 0.000000 -68.771119 -2.944028 6.502372 55.805651 5.394453 2.303360 8.086737 -0.049584 -5.143236 0.000000 -0.000001 -0.000000 -0.000000 0.000000 0.000000 -68.187343 -0.562152 -3.618074 55.089212 -10.145910 -0.194862 8.425108 -12.799103 1.754813 0.000000 0.000001 -0.000000 -0.000002 0.000000 -0.000000 8.668296 -0.139138 0.374077 3.117677 -0.072355 -0.100649 3.117378 -0.085496 -0.100342 4.678432 -0.186112 -1.544764 -17.743991 -1.369072 -2.007894 -0.000000 -0.000000 0.000000 -0.000000 -0.000000 0.000000 -0.000000 -0.000000 -0.000000 -0.000000 -0.000000 0.000000 -0.000000 -0.000000 -0.000000 -0.000000 -0.000000 0.000000 -0.000000 -0.000000 -0.000000 -0.000000 -0.000000 0.000000 -0.000000 -0.000000 0.000000 0.587983 -3.592703 -10.108519 -3.411616 -30.229447 -63.344814 0.000014 -62.438413 0.000030 53.058552 -2.725347 43.570238 -1.540042 3.690186 6.142357 4.987843 21.147826 1.693421 -0.000004 -0.000001 -0.000000 -0.018315 -0.748172 -1.325735 0.553076 2.708428 -23.078815 0.000001 0.000002 0.000002 -0.135832 11.389204 1.393653 0.104252 1.196044 -9.962555 0.000004 0.000001 -0.000001 -1.294553 10.572119 7.460400 0.260641 1.880125 -15.783818 0.000001 0.000000 -0.000003 -1.690017 13.282424 7.978299 0.124250 -2.719589 -11.642813 -0.000001 0.000000 0.000001 0.000002 -0.000000 0.000001 0.532559 4.829379 14.323432 -30.619912 29.625027 59.162805 0.000039 105.726083 -0.000056 -70.563538 13.428639 39.228799 -2.292605 -7.364862 -14.491971 5.259784 -15.532405 -0.703546 -0.000000 0.000000 0.000000 -0.031178 -0.833199 15.497370 1.974626 -4.858054 44.220339 0.000000 0.000000 0.000000 -0.554620 -0.000119 22.284073 2.572679 -5.402728 50.900544 0.000001 -0.000002 0.000002 -0.174381 -1.395189 27.891706 3.157334 -5.827242 56.870399 0.000001 -0.000003 -0.000000 -1.057830 0.303682 27.863069 3.157333 -5.827241 56.870406 -0.000002 0.000000 0.000002 0.000001 -0.000000 0.000000 0.000001 0.000000 0.000000 0.000001 0.000000 0.000000 0.000001 0.000000 0.000000 0.000001 0.000000 0.000000 0.000001 0.000000 0.000000 0.000001 0.000000 0.000000 0.000001 0.000000 0.000000 0.000001 0.000000 0.000000 0.000001 0.000000 0.000000 0.000001 0.000000 0.000000 -0.000000 0.000000 0.000000 -0.000000 0.000000 0.000000 -0.000000 0.000000 0.000000 
-0.125604 54.174431 -0.049770 4.997999 -0.417103 -1.881269 -0.000000 0.000000 0.000000 -68.615807 -2.945546 6.555421 55.868847 5.407385 2.312145 8.062941 -0.049903 -5.153804 -0.000000 0.000001 0.000000 0.000000 0.000000 -0.000000 -68.018719 -0.589602 -3.570316 55.079424 -10.146843 -0.208077 8.435475 -12.727675 1.724478 -0.000000 0.000000 0.000000 0.000001 0.000000 -0.000001 8.662796 -0.221573 0.434166 3.107683 -0.102123 -0.094564 3.107239 -0.116096 -0.094252 4.680445 -0.100261 -1.649852 -17.744599 -1.034969 -1.935819 0.000000 0.000000 -0.000000 0.000000 0.000000 -0.000000 0.000000 0.000000 -0.000000 0.000000 0.000000 -0.000000 0.000000 0.000000 -0.000001 0.000000 0.000000 -0.000000 0.000000 0.000000 -0.000001 0.000000 0.000000 -0.000000 0.000000 0.000000 -0.000000 0.588037 -3.578837 -10.104833 -3.489756 -30.061278 -63.459520 0.000003 -62.189904 0.000008 52.993392 -2.787143 43.428976 -1.540045 3.690186 6.142357 4.987832 21.147809 1.693422 -0.000001 -0.000000 -0.000001 -0.018312 -0.748170 -1.325735 0.553076 2.708428 -23.078813 0.000001 0.000002 0.000000 -0.135839 11.389202 1.393650 0.104253 1.196044 -9.962557 0.000001 -0.000000 0.000002 -1.294553 10.572119 7.460400 0.260640 1.880126 -15.783819 0.000001 0.000001 0.000000 -1.690021 13.282422 7.978298 0.124247 -2.719589 -11.642813 -0.000001 -0.000001 -0.000001 0.000001 -0.000001 0.000001 0.529132 4.867902 14.468858 -26.110567 30.539183 56.753804 0.000295 103.391374 -0.000292 -67.620464 13.068577 39.305317 -2.292604 -7.364867 -14.491969 5.259781 -15.532403 -0.703545 0.000000 -0.000001 -0.000001 0.258122 -1.895765 17.731087 2.274452 -5.147061 47.657498 -0.000001 0.000002 -0.000003 -0.494198 -0.485240 25.128761 2.919207 -5.665479 54.492571 0.000006 -0.000001 0.000001 -0.376303 -1.320596 31.262292 3.543752 -6.060612 60.600689 -0.000003 -0.000001 -0.000002 -1.674160 0.854820 31.276300 3.543727 -6.060596 60.600724 -0.000001 -0.000001 0.000000 -0.000002 0.000000 0.000001 -0.000002 0.000000 0.000000 -0.000002 -0.000000 0.000000 -0.000002 0.000000 0.000000 -0.000002 0.000000 0.000000 -0.000002 0.000000 0.000000 -0.000002 -0.000000 0.000000 -0.000002 0.000000 0.000000 -0.000002 0.000000 0.000000 -0.000002 0.000000 0.000000 -0.000002 -0.000000 0.000000 -0.000000 0.000000 0.000000 -0.000000 0.000000 0.000000 -0.000000 0.000000 0.000000 
